<?xml version="1.0" encoding="UTF-8" standalone="no"?>
<!-- Created with Inkscape (http://www.inkscape.org/) -->

<svg
   xmlns:dc="http://purl.org/dc/elements/1.1/"
   xmlns:cc="http://creativecommons.org/ns#"
   xmlns:rdf="http://www.w3.org/1999/02/22-rdf-syntax-ns#"
   xmlns:svg="http://www.w3.org/2000/svg"
   xmlns="http://www.w3.org/2000/svg"
   xmlns:sodipodi="http://sodipodi.sourceforge.net/DTD/sodipodi-0.dtd"
   xmlns:inkscape="http://www.inkscape.org/namespaces/inkscape"
   width="590"
   height="590"
   id="svg2"
   version="1.1"
   inkscape:version="0.48.4 r"
   sodipodi:docname="logo.svg">
  <defs
     id="defs4" />
  <sodipodi:namedview
     id="base"
     pagecolor="#ffffff"
     bordercolor="#666666"
     borderopacity="1.0"
     inkscape:pageopacity="0.0"
     inkscape:pageshadow="2"
     inkscape:zoom="0.98994949"
     inkscape:cx="25.176459"
     inkscape:cy="306.5404"
     inkscape:document-units="px"
     inkscape:current-layer="layer1"
     showgrid="false"
     inkscape:window-width="1858"
     inkscape:window-height="1057"
     inkscape:window-x="54"
     inkscape:window-y="-8"
     inkscape:window-maximized="1"
     fit-margin-top="0"
     fit-margin-left="0"
     fit-margin-right="0"
     fit-margin-bottom="0" />
  <metadata
     id="metadata7">
    <rdf:RDF>
      <cc:Work
         rdf:about="">
        <dc:format>image/svg+xml</dc:format>
        <dc:type
           rdf:resource="http://purl.org/dc/dcmitype/StillImage" />
        <dc:title></dc:title>
      </cc:Work>
    </rdf:RDF>
  </metadata>
  <g
     inkscape:label="Ebene 1"
     inkscape:groupmode="layer"
     id="layer1"
     transform="translate(-197.625,-82.65625)">
    <path
       style="fill:#ff9a4c;fill-opacity:1;stroke:none"
       d="m 431.65625,260.25 -6.8125,16.59375 L 468,320 l -47.125,-33.46875 -73.5625,179.5625 14.625,12.5 -16.375,-8.1875 -35.1875,85.9375 29.34375,25.28125 -32.8125,-16.875 -39.28125,95.9375 17.125,11.96875 99.40625,-119.6875 -20.1875,-20.84375 23.59375,16.75 74.03125,-89.125 c -16.72762,-22.68329 -33,-44.78125 -33,-44.78125 l 37.625,39.21875 107.375,-129.3125 -141.9375,-64.625 z m 15.40625,91.125 63.09375,44.34375 L 468.65625,379 447.0625,351.375 z"
       id="path2985"
       inkscape:connector-curvature="0" />
    <path
       style="fill:#00512f;fill-opacity:1;stroke:none"
       d="m 476.60108,247.14393 21.17436,9.06965 0.99855,-124.28991 -85.30447,-46.562281 z"
       id="path2987"
       inkscape:connector-curvature="0" />
    <path
       style="fill:#00512f;fill-opacity:1;stroke:none"
       d="m 515.56087,264.75356 37.80308,-139.5602 59.93046,-20.20747 z"
       id="path2989"
       inkscape:connector-curvature="0" />
    <path
       style="fill:#00512f;fill-opacity:1;stroke:none"
       d="m 531.97584,272.17304 149.62841,-107.66118 66.96746,31.76849 z"
       id="path2993"
       inkscape:connector-curvature="0" />
  </g>
</svg>
